<svg xmlns="http://www.w3.org/2000/svg" viewBox="0 0 480 640" width="480" height="640" preserveAspectRatio="xMidYMid meet">

  <defs>
    <filter id="ink-88" x="-10%" y="-10%" width="120%" height="120%">
      <feTurbulence type="fractalNoise" baseFrequency="0.022" numOctaves="2" seed="88" result="noise"/>
      <feDisplacementMap in="SourceGraphic" in2="noise" scale="2.4"/>
    </filter>
    <filter id="ink-strong-88" x="-10%" y="-10%" width="120%" height="120%">
      <feTurbulence type="fractalNoise" baseFrequency="0.045" numOctaves="3" seed="95" result="noise"/>
      <feDisplacementMap in="SourceGraphic" in2="noise" scale="3.6"/>
    </filter>
    <filter id="wash-88" x="-20%" y="-20%" width="140%" height="140%">
      <feTurbulence type="fractalNoise" baseFrequency="0.018" numOctaves="2" seed="91" result="t"/>
      <feDisplacementMap in="SourceGraphic" in2="t" scale="6"/>
      <feGaussianBlur stdDeviation="0.6"/>
    </filter>
    <filter id="haze-88">
      <feGaussianBlur stdDeviation="2.4"/>
    </filter>
    <filter id="paper-88" x="0%" y="0%" width="100%" height="100%">
      <feTurbulence type="fractalNoise" baseFrequency="0.85" numOctaves="2" seed="99" result="grain"/>
      <feColorMatrix in="grain" type="matrix"
        values="0 0 0 0 0.45
                0 0 0 0 0.35
                0 0 0 0 0.20
                0 0 0 0.10 0"/>
    </filter>
  </defs>


  <rect x="0" y="0" width="480" height="640" fill="#f1e4c4"/>
  <rect x="0" y="0" width="480" height="640" fill="#f1e4c4" filter="url(#paper-88)" opacity="0.55"/>
  <!-- 边角阴影 -->
  <radialGradient id="vignette-88" cx="50%" cy="50%" r="70%">
    <stop offset="60%" stop-color="#f1e4c4" stop-opacity="0"/>
    <stop offset="100%" stop-color="#2a1f12" stop-opacity="0.18"/>
  </radialGradient>
  <rect x="0" y="0" width="480" height="640" fill="url(#vignette-88)"/>
  <!-- 折痕 -->
  <path d="M 0 320 L 480 318" stroke="#2a1f12" stroke-width="0.4" opacity="0.08"/>
  <path d="M 240 0 L 242 640" stroke="#2a1f12" stroke-width="0.3" opacity="0.06"/>

  <rect x="14" y="14" width="452" height="612" fill="none" stroke="#7a5a2e" stroke-width="1.4"/>
  <rect x="20" y="20" width="440" height="600" fill="none" stroke="#2a1f12" stroke-width="0.5" opacity="0.5"/>
  <!-- 四角小纹 -->
  <g stroke="#7a5a2e" stroke-width="0.9" fill="none" opacity="0.7">
    <path d="M 20 38 L 20 20 L 38 20"/>
    <path d="M 442 20 L 460 20 L 460 38"/>
    <path d="M 460 602 L 460 620 L 442 620"/>
    <path d="M 38 620 L 20 620 L 20 602"/>
  </g>

  <g>
    <!-- 朝代小章：左顶角 -->
    <g transform="translate(34 36)">
      <rect x="0" y="0" width="44" height="22" fill="none" stroke="#9a2a2a" stroke-width="1.6"/>
      <text x="22" y="15" text-anchor="middle" font-family="STKaiti, KaiTi, serif" font-size="11" fill="#9a2a2a" letter-spacing="2" font-weight="600">春秋</text>
    </g>
    <!-- 朝代小印 -->
    <g transform="translate(82 32)">
      <rect x="0" y="0" width="22" height="22" fill="#9a2a2a"/>
      <text x="11" y="16" text-anchor="middle" font-family="serif" font-size="11" fill="#f1e4c4" font-weight="700">镜</text>
    </g>
    <!-- 题词：右半 -->
    <g transform="translate(120 44)">
      <text font-family="STKaiti, KaiTi, serif" font-size="15" fill="#2a1f12" letter-spacing="3" font-weight="500">
        <tspan x="0" dy="0">仓廪实则知礼</tspan><tspan x="0" dy="22">九合诸侯</tspan>
      </text>
    </g>
    <!-- 顶分隔细线 -->
    <line x1="34" y1="78" x2="446" y2="78" stroke="#7a5a2e" stroke-width="0.5" opacity="0.6"/>
    <line x1="34" y1="82" x2="446" y2="82" stroke="#7a5a2e" stroke-width="0.3" opacity="0.4"/>
  </g>
<!-- 场景区 -->
<g>
        
  <g filter="url(#haze-50)" opacity="0.7">
    <path d="M 0 320 L 60 284 L 130 269 L 200 290 L 280 260 L 360 278 L 440 296 L 480 308 L 480 480 L 0 480 Z" fill="#a47c4a" opacity="0.35"/>
    <path d="M 0 344 L 80 326 L 170 311 L 260 332 L 340 308 L 420 329 L 480 341 L 480 480 L 0 480 Z" fill="#a47c4a" opacity="0.55"/>
  </g>
        <!-- 集市 -->
        <g stroke="#2a1f12" stroke-width="0.8" fill="#a47c4a" opacity="0.7">
          <rect x="80" y="380" width="40" height="40"/>
          <rect x="130" y="380" width="40" height="40"/>
          <rect x="180" y="380" width="40" height="40"/>
          <rect x="230" y="380" width="40" height="40"/>
          <line x1="80" y1="380" x2="270" y2="380"/>
        </g>
        <!-- 老马 -->
        <g transform="translate(340 380)" fill="#7a5a2e" stroke="#2a1f12" stroke-width="1.4">
          <ellipse cx="0" cy="0" rx="32" ry="12"/>
          <ellipse cx="28" cy="-6" rx="12" ry="9"/>
          <line x1="-22" y1="6" x2="-24" y2="20"/>
          <line x1="-6" y1="10" x2="-8" y2="22"/>
          <line x1="14" y1="10" x2="12" y2="22"/>
          <line x1="24" y1="6" x2="26" y2="22"/>
        </g>
        <!-- 立者 -->
        <g transform="translate(380 350)" fill="#2a1f12" opacity="0.9">
          <ellipse cx="0" cy="0" rx="11" ry="14"/>
          <path d="M -16 12 L -22 50 L 22 50 L 16 12 Z"/>
          <ellipse cx="0" cy="-16" rx="9" ry="11" fill="#7a5a2e"/>
        </g></g>

  <g>
    <!-- 底分隔细线 -->
    <line x1="34" y1="500" x2="446" y2="500" stroke="#7a5a2e" stroke-width="0.5" opacity="0.6"/>
    <line x1="34" y1="504" x2="446" y2="504" stroke="#7a5a2e" stroke-width="0.3" opacity="0.4"/>
    <!-- 姓名：左半横排大字 -->
    <g transform="translate(46 540)">
      <text font-family="STKaiti, KaiTi, serif" font-size="38" fill="#2a1f12" letter-spacing="14" font-weight="700">管仲</text>
      <!-- 姓名小注：右侧小字 -->
      <text x="0" y="40" font-family="STKaiti, KaiTi, serif" font-size="10" fill="#7a5a2e" letter-spacing="3" opacity="0.85">东方文人 · 镜心之镜</text>
    </g>
    <!-- 篆刻朱砂方印：右下角 -->
    <g transform="translate(360 530)">
      <rect x="0" y="0" width="64" height="64" fill="#9a2a2a" filter="url(#ink-27)"/>
      <rect x="2" y="2" width="60" height="60" fill="none" stroke="#f1e4c4" stroke-width="0.8" opacity="0.6"/>
      
      <text x="32" y="28" text-anchor="middle" font-family="serif" font-size="20" fill="#f1e4c4" font-weight="900">老</text>
      <text x="32" y="54" text-anchor="middle" font-family="serif" font-size="20" fill="#f1e4c4" font-weight="900">途</text>
      <g transform="rotate(-2 32 32)" opacity="0.95">
        <text x="14" y="22" text-anchor="middle" font-family="serif" font-size="16" fill="#f1e4c4" font-weight="900">马</text>
        <text x="50" y="50" text-anchor="middle" font-family="serif" font-size="16" fill="#f1e4c4" font-weight="900">识</text>
      </g>
    </g>
  </g>
<!-- 副标：人物小注 -->
<g transform="translate(46 600)">
  <text font-family="STKaiti, KaiTi, serif" font-size="10" fill="#7a5a2e" letter-spacing="2" opacity="0.7">九合诸侯 · 镜心选镜</text>
</g>
</svg>