<svg xmlns="http://www.w3.org/2000/svg" viewBox="0 0 480 640" width="480" height="640" preserveAspectRatio="xMidYMid meet">

  <defs>
    <filter id="ink-81" x="-10%" y="-10%" width="120%" height="120%">
      <feTurbulence type="fractalNoise" baseFrequency="0.022" numOctaves="2" seed="81" result="noise"/>
      <feDisplacementMap in="SourceGraphic" in2="noise" scale="2.4"/>
    </filter>
    <filter id="ink-strong-81" x="-10%" y="-10%" width="120%" height="120%">
      <feTurbulence type="fractalNoise" baseFrequency="0.045" numOctaves="3" seed="88" result="noise"/>
      <feDisplacementMap in="SourceGraphic" in2="noise" scale="3.6"/>
    </filter>
    <filter id="wash-81" x="-20%" y="-20%" width="140%" height="140%">
      <feTurbulence type="fractalNoise" baseFrequency="0.018" numOctaves="2" seed="84" result="t"/>
      <feDisplacementMap in="SourceGraphic" in2="t" scale="6"/>
      <feGaussianBlur stdDeviation="0.6"/>
    </filter>
    <filter id="haze-81">
      <feGaussianBlur stdDeviation="2.4"/>
    </filter>
    <filter id="paper-81" x="0%" y="0%" width="100%" height="100%">
      <feTurbulence type="fractalNoise" baseFrequency="0.85" numOctaves="2" seed="92" result="grain"/>
      <feColorMatrix in="grain" type="matrix"
        values="0 0 0 0 0.45
                0 0 0 0 0.35
                0 0 0 0 0.20
                0 0 0 0.10 0"/>
    </filter>
  </defs>


  <rect x="0" y="0" width="480" height="640" fill="#faecc8"/>
  <rect x="0" y="0" width="480" height="640" fill="#faecc8" filter="url(#paper-81)" opacity="0.55"/>
  <!-- 边角阴影 -->
  <radialGradient id="vignette-81" cx="50%" cy="50%" r="70%">
    <stop offset="60%" stop-color="#faecc8" stop-opacity="0"/>
    <stop offset="100%" stop-color="#3a2008" stop-opacity="0.18"/>
  </radialGradient>
  <rect x="0" y="0" width="480" height="640" fill="url(#vignette-81)"/>
  <!-- 折痕 -->
  <path d="M 0 320 L 480 318" stroke="#3a2008" stroke-width="0.4" opacity="0.08"/>
  <path d="M 240 0 L 242 640" stroke="#3a2008" stroke-width="0.3" opacity="0.06"/>

  <rect x="14" y="14" width="452" height="612" fill="none" stroke="#b8842a" stroke-width="1.4"/>
  <rect x="20" y="20" width="440" height="600" fill="none" stroke="#3a2008" stroke-width="0.5" opacity="0.5"/>
  <!-- 四角小纹 -->
  <g stroke="#b8842a" stroke-width="0.9" fill="none" opacity="0.7">
    <path d="M 20 38 L 20 20 L 38 20"/>
    <path d="M 442 20 L 460 20 L 460 38"/>
    <path d="M 460 602 L 460 620 L 442 620"/>
    <path d="M 38 620 L 20 620 L 20 602"/>
  </g>

  <g>
    <!-- 朝代小章：左顶角 -->
    <g transform="translate(34 36)">
      <rect x="0" y="0" width="44" height="22" fill="none" stroke="#a82828" stroke-width="1.6"/>
      <text x="22" y="15" text-anchor="middle" font-family="STKaiti, KaiTi, serif" font-size="11" fill="#a82828" letter-spacing="2" font-weight="600">盛唐</text>
    </g>
    <!-- 朝代小印 -->
    <g transform="translate(82 32)">
      <rect x="0" y="0" width="22" height="22" fill="#a82828"/>
      <text x="11" y="16" text-anchor="middle" font-family="serif" font-size="11" fill="#faecc8" font-weight="700">镜</text>
    </g>
    <!-- 题词：右半 -->
    <g transform="translate(120 44)">
      <text font-family="STKaiti, KaiTi, serif" font-size="15" fill="#3a2008" letter-spacing="3" font-weight="500">
        <tspan x="0" dy="0">敢谏直声</tspan><tspan x="0" dy="22">十渐不终</tspan>
      </text>
    </g>
    <!-- 顶分隔细线 -->
    <line x1="34" y1="78" x2="446" y2="78" stroke="#b8842a" stroke-width="0.5" opacity="0.6"/>
    <line x1="34" y1="82" x2="446" y2="82" stroke="#b8842a" stroke-width="0.3" opacity="0.4"/>
  </g>
<!-- 场景区 -->
<g>
        
  <g filter="url(#haze-50)" opacity="0.7">
    <path d="M 0 320 L 60 290 L 130 277.5 L 200 295 L 280 270 L 360 285 L 440 300 L 480 310 L 480 480 L 0 480 Z" fill="#d8a850" opacity="0.35"/>
    <path d="M 0 344 L 80 329 L 170 316.5 L 260 334 L 340 314 L 420 331.5 L 480 341.5 L 480 480 L 0 480 Z" fill="#d8a850" opacity="0.55"/>
  </g>
        <!-- 殿 -->
        <g stroke="#3a2008" stroke-width="1.4" fill="#b8842a" opacity="0.7">
          <path d="M 80 280 L 240 250 L 400 280 L 400 360 L 80 360 Z" fill="#a82828" opacity="0.4"/>
          <line x1="80" y1="360" x2="80" y2="420"/>
          <line x1="400" y1="360" x2="400" y2="420"/>
          <line x1="80" y1="420" x2="400" y2="420"/>
        </g>
        <!-- 谏者 -->
        <g transform="translate(180 350)" fill="#3a2008" opacity="0.95">
          <ellipse cx="0" cy="0" rx="12" ry="15"/>
          <path d="M -18 12 L -24 60 L 24 60 L 18 12 Z"/>
          <ellipse cx="0" cy="-18" rx="10" ry="12" fill="#b8842a"/>
          <line x1="20" y1="0" x2="40" y2="-10" stroke="#3a2008" stroke-width="2"/>
        </g>
        <!-- 笏板 -->
        <rect x="200" y="280" width="6" height="40" fill="#faecc8" stroke="#b8842a" stroke-width="0.6"/></g>

  <g>
    <!-- 底分隔细线 -->
    <line x1="34" y1="500" x2="446" y2="500" stroke="#b8842a" stroke-width="0.5" opacity="0.6"/>
    <line x1="34" y1="504" x2="446" y2="504" stroke="#b8842a" stroke-width="0.3" opacity="0.4"/>
    <!-- 姓名：左半横排大字 -->
    <g transform="translate(46 540)">
      <text font-family="STKaiti, KaiTi, serif" font-size="38" fill="#3a2008" letter-spacing="14" font-weight="700">魏徵</text>
      <!-- 姓名小注：右侧小字 -->
      <text x="0" y="40" font-family="STKaiti, KaiTi, serif" font-size="10" fill="#b8842a" letter-spacing="3" opacity="0.85">东方文人 · 镜心之镜</text>
    </g>
    <!-- 篆刻朱砂方印：右下角 -->
    <g transform="translate(360 530)">
      <rect x="0" y="0" width="64" height="64" fill="#a82828" filter="url(#ink-27)"/>
      <rect x="2" y="2" width="60" height="60" fill="none" stroke="#faecc8" stroke-width="0.8" opacity="0.6"/>
      
      <text x="32" y="28" text-anchor="middle" font-family="serif" font-size="20" fill="#faecc8" font-weight="900">以</text>
      <text x="32" y="54" text-anchor="middle" font-family="serif" font-size="20" fill="#faecc8" font-weight="900">镜</text>
      <g transform="rotate(-2 32 32)" opacity="0.95">
        <text x="14" y="22" text-anchor="middle" font-family="serif" font-size="16" fill="#faecc8" font-weight="900">人</text>
        <text x="50" y="50" text-anchor="middle" font-family="serif" font-size="16" fill="#faecc8" font-weight="900">为</text>
      </g>
    </g>
  </g>
<!-- 副标：人物小注 -->
<g transform="translate(46 600)">
  <text font-family="STKaiti, KaiTi, serif" font-size="10" fill="#b8842a" letter-spacing="2" opacity="0.7">以人为镜 · 镜心选镜</text>
</g>
</svg>