<svg xmlns="http://www.w3.org/2000/svg" viewBox="0 0 480 640" width="480" height="640" preserveAspectRatio="xMidYMid meet">

  <defs>
    <filter id="ink-57" x="-10%" y="-10%" width="120%" height="120%">
      <feTurbulence type="fractalNoise" baseFrequency="0.022" numOctaves="2" seed="57" result="noise"/>
      <feDisplacementMap in="SourceGraphic" in2="noise" scale="2.4"/>
    </filter>
    <filter id="ink-strong-57" x="-10%" y="-10%" width="120%" height="120%">
      <feTurbulence type="fractalNoise" baseFrequency="0.045" numOctaves="3" seed="64" result="noise"/>
      <feDisplacementMap in="SourceGraphic" in2="noise" scale="3.6"/>
    </filter>
    <filter id="wash-57" x="-20%" y="-20%" width="140%" height="140%">
      <feTurbulence type="fractalNoise" baseFrequency="0.018" numOctaves="2" seed="60" result="t"/>
      <feDisplacementMap in="SourceGraphic" in2="t" scale="6"/>
      <feGaussianBlur stdDeviation="0.6"/>
    </filter>
    <filter id="haze-57">
      <feGaussianBlur stdDeviation="2.4"/>
    </filter>
    <filter id="paper-57" x="0%" y="0%" width="100%" height="100%">
      <feTurbulence type="fractalNoise" baseFrequency="0.85" numOctaves="2" seed="68" result="grain"/>
      <feColorMatrix in="grain" type="matrix"
        values="0 0 0 0 0.45
                0 0 0 0 0.35
                0 0 0 0 0.20
                0 0 0 0.10 0"/>
    </filter>
  </defs>


  <rect x="0" y="0" width="480" height="640" fill="#faecc8"/>
  <rect x="0" y="0" width="480" height="640" fill="#faecc8" filter="url(#paper-57)" opacity="0.55"/>
  <!-- 边角阴影 -->
  <radialGradient id="vignette-57" cx="50%" cy="50%" r="70%">
    <stop offset="60%" stop-color="#faecc8" stop-opacity="0"/>
    <stop offset="100%" stop-color="#3a2008" stop-opacity="0.18"/>
  </radialGradient>
  <rect x="0" y="0" width="480" height="640" fill="url(#vignette-57)"/>
  <!-- 折痕 -->
  <path d="M 0 320 L 480 318" stroke="#3a2008" stroke-width="0.4" opacity="0.08"/>
  <path d="M 240 0 L 242 640" stroke="#3a2008" stroke-width="0.3" opacity="0.06"/>

  <rect x="14" y="14" width="452" height="612" fill="none" stroke="#b8842a" stroke-width="1.4"/>
  <rect x="20" y="20" width="440" height="600" fill="none" stroke="#3a2008" stroke-width="0.5" opacity="0.5"/>
  <!-- 四角小纹 -->
  <g stroke="#b8842a" stroke-width="0.9" fill="none" opacity="0.7">
    <path d="M 20 38 L 20 20 L 38 20"/>
    <path d="M 442 20 L 460 20 L 460 38"/>
    <path d="M 460 602 L 460 620 L 442 620"/>
    <path d="M 38 620 L 20 620 L 20 602"/>
  </g>

  <g>
    <!-- 朝代小章：左顶角 -->
    <g transform="translate(34 36)">
      <rect x="0" y="0" width="44" height="22" fill="none" stroke="#a82828" stroke-width="1.6"/>
      <text x="22" y="15" text-anchor="middle" font-family="STKaiti, KaiTi, serif" font-size="11" fill="#a82828" letter-spacing="2" font-weight="600">盛唐</text>
    </g>
    <!-- 朝代小印 -->
    <g transform="translate(82 32)">
      <rect x="0" y="0" width="22" height="22" fill="#a82828"/>
      <text x="11" y="16" text-anchor="middle" font-family="serif" font-size="11" fill="#faecc8" font-weight="700">镜</text>
    </g>
    <!-- 题词：右半 -->
    <g transform="translate(120 44)">
      <text font-family="STKaiti, KaiTi, serif" font-size="15" fill="#3a2008" letter-spacing="3" font-weight="500">
        <tspan x="0" dy="0">顺天时</tspan><tspan x="0" dy="22">量地利</tspan>
      </text>
    </g>
    <!-- 顶分隔细线 -->
    <line x1="34" y1="78" x2="446" y2="78" stroke="#b8842a" stroke-width="0.5" opacity="0.6"/>
    <line x1="34" y1="82" x2="446" y2="82" stroke="#b8842a" stroke-width="0.3" opacity="0.4"/>
  </g>
<!-- 场景区 -->
<g>
        
  <g filter="url(#haze-50)" opacity="0.7">
    <path d="M 0 320 L 60 290 L 130 277.5 L 200 295 L 280 270 L 360 285 L 440 300 L 480 310 L 480 480 L 0 480 Z" fill="#d8a850" opacity="0.35"/>
    <path d="M 0 344 L 80 329 L 170 316.5 L 260 334 L 340 314 L 420 331.5 L 480 341.5 L 480 480 L 0 480 Z" fill="#d8a850" opacity="0.55"/>
  </g>
        
  <g fill="#faecc8" opacity="0.85">
    <ellipse cx="140" cy="140" rx="35" ry="6"/>
    <ellipse cx="126" cy="136" rx="12.6" ry="5"/>
    <ellipse cx="152.6" cy="137" rx="14" ry="4"/>
  </g>
        <!-- 农田 -->
        <g stroke="#3a2008" stroke-width="0.6" fill="#d8a850" opacity="0.5">
          <rect x="60" y="380" width="360" height="40"/>
          <line x1="60" y1="380" x2="60" y2="420"/><line x1="105" y1="380" x2="105" y2="420"/><line x1="150" y1="380" x2="150" y2="420"/><line x1="195" y1="380" x2="195" y2="420"/><line x1="240" y1="380" x2="240" y2="420"/><line x1="285" y1="380" x2="285" y2="420"/><line x1="330" y1="380" x2="330" y2="420"/><line x1="375" y1="380" x2="375" y2="420"/>
        </g>
        <!-- 苗 -->
        <g transform="translate(80 380)" stroke="#3a2008" stroke-width="0.6" fill="none">
          <line x1="0" y1="0" x2="0" y2="-10"/>
          <path d="M 0 -6 q -3 -2 -6 -2" />
          <path d="M 0 -8 q 3 -2 6 -2" />
        </g><g transform="translate(102 380)" stroke="#3a2008" stroke-width="0.6" fill="none">
          <line x1="0" y1="0" x2="0" y2="-10"/>
          <path d="M 0 -6 q -3 -2 -6 -2" />
          <path d="M 0 -8 q 3 -2 6 -2" />
        </g><g transform="translate(124 380)" stroke="#3a2008" stroke-width="0.6" fill="none">
          <line x1="0" y1="0" x2="0" y2="-10"/>
          <path d="M 0 -6 q -3 -2 -6 -2" />
          <path d="M 0 -8 q 3 -2 6 -2" />
        </g><g transform="translate(146 380)" stroke="#3a2008" stroke-width="0.6" fill="none">
          <line x1="0" y1="0" x2="0" y2="-10"/>
          <path d="M 0 -6 q -3 -2 -6 -2" />
          <path d="M 0 -8 q 3 -2 6 -2" />
        </g><g transform="translate(168 380)" stroke="#3a2008" stroke-width="0.6" fill="none">
          <line x1="0" y1="0" x2="0" y2="-10"/>
          <path d="M 0 -6 q -3 -2 -6 -2" />
          <path d="M 0 -8 q 3 -2 6 -2" />
        </g><g transform="translate(190 380)" stroke="#3a2008" stroke-width="0.6" fill="none">
          <line x1="0" y1="0" x2="0" y2="-10"/>
          <path d="M 0 -6 q -3 -2 -6 -2" />
          <path d="M 0 -8 q 3 -2 6 -2" />
        </g><g transform="translate(212 380)" stroke="#3a2008" stroke-width="0.6" fill="none">
          <line x1="0" y1="0" x2="0" y2="-10"/>
          <path d="M 0 -6 q -3 -2 -6 -2" />
          <path d="M 0 -8 q 3 -2 6 -2" />
        </g><g transform="translate(234 380)" stroke="#3a2008" stroke-width="0.6" fill="none">
          <line x1="0" y1="0" x2="0" y2="-10"/>
          <path d="M 0 -6 q -3 -2 -6 -2" />
          <path d="M 0 -8 q 3 -2 6 -2" />
        </g><g transform="translate(256 380)" stroke="#3a2008" stroke-width="0.6" fill="none">
          <line x1="0" y1="0" x2="0" y2="-10"/>
          <path d="M 0 -6 q -3 -2 -6 -2" />
          <path d="M 0 -8 q 3 -2 6 -2" />
        </g><g transform="translate(278 380)" stroke="#3a2008" stroke-width="0.6" fill="none">
          <line x1="0" y1="0" x2="0" y2="-10"/>
          <path d="M 0 -6 q -3 -2 -6 -2" />
          <path d="M 0 -8 q 3 -2 6 -2" />
        </g><g transform="translate(300 380)" stroke="#3a2008" stroke-width="0.6" fill="none">
          <line x1="0" y1="0" x2="0" y2="-10"/>
          <path d="M 0 -6 q -3 -2 -6 -2" />
          <path d="M 0 -8 q 3 -2 6 -2" />
        </g><g transform="translate(322 380)" stroke="#3a2008" stroke-width="0.6" fill="none">
          <line x1="0" y1="0" x2="0" y2="-10"/>
          <path d="M 0 -6 q -3 -2 -6 -2" />
          <path d="M 0 -8 q 3 -2 6 -2" />
        </g><g transform="translate(344 380)" stroke="#3a2008" stroke-width="0.6" fill="none">
          <line x1="0" y1="0" x2="0" y2="-10"/>
          <path d="M 0 -6 q -3 -2 -6 -2" />
          <path d="M 0 -8 q 3 -2 6 -2" />
        </g><g transform="translate(366 380)" stroke="#3a2008" stroke-width="0.6" fill="none">
          <line x1="0" y1="0" x2="0" y2="-10"/>
          <path d="M 0 -6 q -3 -2 -6 -2" />
          <path d="M 0 -8 q 3 -2 6 -2" />
        </g><g transform="translate(388 380)" stroke="#3a2008" stroke-width="0.6" fill="none">
          <line x1="0" y1="0" x2="0" y2="-10"/>
          <path d="M 0 -6 q -3 -2 -6 -2" />
          <path d="M 0 -8 q 3 -2 6 -2" />
        </g><g transform="translate(410 380)" stroke="#3a2008" stroke-width="0.6" fill="none">
          <line x1="0" y1="0" x2="0" y2="-10"/>
          <path d="M 0 -6 q -3 -2 -6 -2" />
          <path d="M 0 -8 q 3 -2 6 -2" />
        </g>
        <!-- 农人 -->
        <g transform="translate(220 340)" fill="#3a2008" opacity="0.95">
          <ellipse cx="0" cy="0" rx="11" ry="14"/>
          <path d="M -16 12 L -22 40 L 22 40 L 16 12 Z"/>
          <ellipse cx="0" cy="-16" rx="9" ry="11" fill="#b8842a"/>
        </g></g>

  <g>
    <!-- 底分隔细线 -->
    <line x1="34" y1="500" x2="446" y2="500" stroke="#b8842a" stroke-width="0.5" opacity="0.6"/>
    <line x1="34" y1="504" x2="446" y2="504" stroke="#b8842a" stroke-width="0.3" opacity="0.4"/>
    <!-- 姓名：左半横排大字 -->
    <g transform="translate(46 540)">
      <text font-family="STKaiti, KaiTi, serif" font-size="38" fill="#3a2008" letter-spacing="14" font-weight="700">贾思勰</text>
      <!-- 姓名小注：右侧小字 -->
      <text x="0" y="40" font-family="STKaiti, KaiTi, serif" font-size="10" fill="#b8842a" letter-spacing="3" opacity="0.85">东方文人 · 镜心之镜</text>
    </g>
    <!-- 篆刻朱砂方印：右下角 -->
    <g transform="translate(360 530)">
      <rect x="0" y="0" width="64" height="64" fill="#a82828" filter="url(#ink-40)"/>
      <rect x="2" y="2" width="60" height="60" fill="none" stroke="#faecc8" stroke-width="0.8" opacity="0.6"/>
      
      <text x="32" y="20" text-anchor="middle" font-family="serif" font-size="20" fill="#faecc8" font-weight="900">齐</text>
      <text x="32" y="40" text-anchor="middle" font-family="serif" font-size="20" fill="#faecc8" font-weight="900">民</text>
      <text x="32" y="60" text-anchor="middle" font-family="serif" font-size="20" fill="#faecc8" font-weight="900">要</text>
    </g>
  </g>
<!-- 副标：人物小注 -->
<g transform="translate(46 600)">
  <text font-family="STKaiti, KaiTi, serif" font-size="10" fill="#b8842a" letter-spacing="2" opacity="0.7">齐民要术 · 镜心选镜</text>
</g>
</svg>