<svg xmlns="http://www.w3.org/2000/svg" viewBox="0 0 480 640" width="480" height="640" preserveAspectRatio="xMidYMid meet">

  <defs>
    <filter id="ink-99" x="-10%" y="-10%" width="120%" height="120%">
      <feTurbulence type="fractalNoise" baseFrequency="0.022" numOctaves="2" seed="99" result="noise"/>
      <feDisplacementMap in="SourceGraphic" in2="noise" scale="2.4"/>
    </filter>
    <filter id="ink-strong-99" x="-10%" y="-10%" width="120%" height="120%">
      <feTurbulence type="fractalNoise" baseFrequency="0.045" numOctaves="3" seed="106" result="noise"/>
      <feDisplacementMap in="SourceGraphic" in2="noise" scale="3.6"/>
    </filter>
    <filter id="wash-99" x="-20%" y="-20%" width="140%" height="140%">
      <feTurbulence type="fractalNoise" baseFrequency="0.018" numOctaves="2" seed="102" result="t"/>
      <feDisplacementMap in="SourceGraphic" in2="t" scale="6"/>
      <feGaussianBlur stdDeviation="0.6"/>
    </filter>
    <filter id="haze-99">
      <feGaussianBlur stdDeviation="2.4"/>
    </filter>
    <filter id="paper-99" x="0%" y="0%" width="100%" height="100%">
      <feTurbulence type="fractalNoise" baseFrequency="0.85" numOctaves="2" seed="110" result="grain"/>
      <feColorMatrix in="grain" type="matrix"
        values="0 0 0 0 0.45
                0 0 0 0 0.35
                0 0 0 0 0.20
                0 0 0 0.10 0"/>
    </filter>
  </defs>


  <rect x="0" y="0" width="480" height="640" fill="#dee8e0"/>
  <rect x="0" y="0" width="480" height="640" fill="#dee8e0" filter="url(#paper-99)" opacity="0.55"/>
  <!-- 边角阴影 -->
  <radialGradient id="vignette-99" cx="50%" cy="50%" r="70%">
    <stop offset="60%" stop-color="#dee8e0" stop-opacity="0"/>
    <stop offset="100%" stop-color="#0e1a18" stop-opacity="0.18"/>
  </radialGradient>
  <rect x="0" y="0" width="480" height="640" fill="url(#vignette-99)"/>
  <!-- 折痕 -->
  <path d="M 0 320 L 480 318" stroke="#0e1a18" stroke-width="0.4" opacity="0.08"/>
  <path d="M 240 0 L 242 640" stroke="#0e1a18" stroke-width="0.3" opacity="0.06"/>

  <rect x="14" y="14" width="452" height="612" fill="none" stroke="#3e5a4a" stroke-width="1.4"/>
  <rect x="20" y="20" width="440" height="600" fill="none" stroke="#0e1a18" stroke-width="0.5" opacity="0.5"/>
  <!-- 四角小纹 -->
  <g stroke="#3e5a4a" stroke-width="0.9" fill="none" opacity="0.7">
    <path d="M 20 38 L 20 20 L 38 20"/>
    <path d="M 442 20 L 460 20 L 460 38"/>
    <path d="M 460 602 L 460 620 L 442 620"/>
    <path d="M 38 620 L 20 620 L 20 602"/>
  </g>

  <g>
    <!-- 朝代小章：左顶角 -->
    <g transform="translate(34 36)">
      <rect x="0" y="0" width="44" height="22" fill="none" stroke="#7a2a2a" stroke-width="1.6"/>
      <text x="22" y="15" text-anchor="middle" font-family="STKaiti, KaiTi, serif" font-size="11" fill="#7a2a2a" letter-spacing="2" font-weight="600">启蒙</text>
    </g>
    <!-- 朝代小印 -->
    <g transform="translate(82 32)">
      <rect x="0" y="0" width="22" height="22" fill="#7a2a2a"/>
      <text x="11" y="16" text-anchor="middle" font-family="serif" font-size="11" fill="#dee8e0" font-weight="700">镜</text>
    </g>
    <!-- 题词：右半 -->
    <g transform="translate(120 44)">
      <text font-family="STKaiti, KaiTi, serif" font-size="15" fill="#0e1a18" letter-spacing="3" font-weight="500">
        <tspan x="0" dy="0">普遍怀疑</tspan><tspan x="0" dy="22">坐标之法</tspan>
      </text>
    </g>
    <!-- 顶分隔细线 -->
    <line x1="34" y1="78" x2="446" y2="78" stroke="#3e5a4a" stroke-width="0.5" opacity="0.6"/>
    <line x1="34" y1="82" x2="446" y2="82" stroke="#3e5a4a" stroke-width="0.3" opacity="0.4"/>
  </g>
<!-- 场景区 -->
<g>
        
  <g stroke="#3e5a4a" stroke-width="1.2" fill="none">
    <rect x="52" y="260" width="16" height="190" fill="#3e5a4a" opacity="0.4"/>
    <line x1="50" y1="264" x2="70" y2="264" stroke-width="2"/>
    <line x1="49" y1="256" x2="71" y2="256" stroke-width="2.2"/>
    <line x1="52" y1="452" x2="68" y2="452"/>
    <line x1="50" y1="456" x2="70" y2="456"/>
  </g>
        
  <g stroke="#3e5a4a" stroke-width="1.2" fill="none">
    <rect x="412" y="260" width="16" height="190" fill="#3e5a4a" opacity="0.4"/>
    <line x1="410" y1="264" x2="430" y2="264" stroke-width="2"/>
    <line x1="409" y1="256" x2="431" y2="256" stroke-width="2.2"/>
    <line x1="412" y1="452" x2="428" y2="452"/>
    <line x1="410" y1="456" x2="430" y2="456"/>
  </g>
        <!-- 桌 -->
        <rect x="160" y="400" width="160" height="14" fill="#3e5a4a" opacity="0.85"/>
        
  <g stroke="#0e1a18" stroke-width="1.4" fill="none" stroke-linecap="round">
    <path d="M 180 380 q 14 -10 30 -30 q 10 -6 20 -16"/>
    <path d="M 184 376 q 10 -4 18 -10" stroke-width="0.8" opacity="0.7"/>
    <path d="M 188 368 q 8 -4 16 -8" stroke-width="0.8" opacity="0.7"/>
  </g>
        
  <g>
    <path d="M 260 380 Q 300 374 340 380 L 340 410 Q 300 404 260 410 Z" fill="#dee8e0" stroke="#0e1a18" stroke-width="1.2"/>
    <line x1="300" y1="380" x2="300" y2="406" stroke="#0e1a18" stroke-width="0.8"/>
    <line x1="266" y1="386" x2="292" y2="386" stroke="#0e1a18" stroke-width="0.5" opacity="0.6"/><line x1="266" y1="392" x2="292" y2="392" stroke="#0e1a18" stroke-width="0.5" opacity="0.6"/><line x1="266" y1="398" x2="292" y2="398" stroke="#0e1a18" stroke-width="0.5" opacity="0.6"/><line x1="266" y1="404" x2="292" y2="404" stroke="#0e1a18" stroke-width="0.5" opacity="0.6"/>
    <line x1="308" y1="386" x2="334" y2="386" stroke="#0e1a18" stroke-width="0.5" opacity="0.6"/><line x1="308" y1="392" x2="334" y2="392" stroke="#0e1a18" stroke-width="0.5" opacity="0.6"/><line x1="308" y1="398" x2="334" y2="398" stroke="#0e1a18" stroke-width="0.5" opacity="0.6"/><line x1="308" y1="404" x2="334" y2="404" stroke="#0e1a18" stroke-width="0.5" opacity="0.6"/>
  </g>
        <!-- 几何图（坐标） -->
        <g transform="translate(380 290)" stroke="#7a2a2a" stroke-width="1.6" fill="none" opacity="0.85">
          <line x1="-20" y1="0" x2="20" y2="0"/>
          <line x1="0" y1="-20" x2="0" y2="20"/>
          <path d="M -20 16 Q 0 -10 20 -16"/>
        </g>
        <!-- 坐者 -->
        <g transform="translate(240 340)" fill="#0e1a18" opacity="0.95">
          <ellipse cx="0" cy="0" rx="13" ry="16"/>
          <path d="M -20 14 L -26 50 L 26 50 L 20 14 Z"/>
          <ellipse cx="0" cy="-20" rx="11" ry="13" fill="#3e5a4a"/>
        </g></g>

  <g>
    <!-- 底分隔细线 -->
    <line x1="34" y1="500" x2="446" y2="500" stroke="#3e5a4a" stroke-width="0.5" opacity="0.6"/>
    <line x1="34" y1="504" x2="446" y2="504" stroke="#3e5a4a" stroke-width="0.3" opacity="0.4"/>
    <!-- 姓名：左半横排大字 -->
    <g transform="translate(46 540)">
      <text font-family="STKaiti, KaiTi, serif" font-size="38" fill="#0e1a18" letter-spacing="14" font-weight="700">笛卡尔</text>
      <!-- 姓名小注：右侧小字 -->
      <text x="0" y="40" font-family="STKaiti, KaiTi, serif" font-size="10" fill="#3e5a4a" letter-spacing="3" opacity="0.85">东方文人 · 镜心之镜</text>
    </g>
    <!-- 篆刻朱砂方印：右下角 -->
    <g transform="translate(360 530)">
      <rect x="0" y="0" width="64" height="64" fill="#7a2a2a" filter="url(#ink-40)"/>
      <rect x="2" y="2" width="60" height="60" fill="none" stroke="#dee8e0" stroke-width="0.8" opacity="0.6"/>
      
      <text x="32" y="20" text-anchor="middle" font-family="serif" font-size="20" fill="#dee8e0" font-weight="900">我</text>
      <text x="32" y="40" text-anchor="middle" font-family="serif" font-size="20" fill="#dee8e0" font-weight="900">思</text>
      <text x="32" y="60" text-anchor="middle" font-family="serif" font-size="20" fill="#dee8e0" font-weight="900">故</text>
    </g>
  </g>
<!-- 副标：人物小注 -->
<g transform="translate(46 600)">
  <text font-family="STKaiti, KaiTi, serif" font-size="10" fill="#3e5a4a" letter-spacing="2" opacity="0.7">炉火之思 · 镜心选镜</text>
</g>
</svg>