<svg xmlns="http://www.w3.org/2000/svg" viewBox="0 0 480 640" width="480" height="640" preserveAspectRatio="xMidYMid meet">

  <defs>
    <filter id="ink-113" x="-10%" y="-10%" width="120%" height="120%">
      <feTurbulence type="fractalNoise" baseFrequency="0.022" numOctaves="2" seed="113" result="noise"/>
      <feDisplacementMap in="SourceGraphic" in2="noise" scale="2.4"/>
    </filter>
    <filter id="ink-strong-113" x="-10%" y="-10%" width="120%" height="120%">
      <feTurbulence type="fractalNoise" baseFrequency="0.045" numOctaves="3" seed="120" result="noise"/>
      <feDisplacementMap in="SourceGraphic" in2="noise" scale="3.6"/>
    </filter>
    <filter id="wash-113" x="-20%" y="-20%" width="140%" height="140%">
      <feTurbulence type="fractalNoise" baseFrequency="0.018" numOctaves="2" seed="116" result="t"/>
      <feDisplacementMap in="SourceGraphic" in2="t" scale="6"/>
      <feGaussianBlur stdDeviation="0.6"/>
    </filter>
    <filter id="haze-113">
      <feGaussianBlur stdDeviation="2.4"/>
    </filter>
    <filter id="paper-113" x="0%" y="0%" width="100%" height="100%">
      <feTurbulence type="fractalNoise" baseFrequency="0.85" numOctaves="2" seed="124" result="grain"/>
      <feColorMatrix in="grain" type="matrix"
        values="0 0 0 0 0.45
                0 0 0 0 0.35
                0 0 0 0 0.20
                0 0 0 0.10 0"/>
    </filter>
  </defs>


  <rect x="0" y="0" width="480" height="640" fill="#e6ecdc"/>
  <rect x="0" y="0" width="480" height="640" fill="#e6ecdc" filter="url(#paper-113)" opacity="0.55"/>
  <!-- 边角阴影 -->
  <radialGradient id="vignette-113" cx="50%" cy="50%" r="70%">
    <stop offset="60%" stop-color="#e6ecdc" stop-opacity="0"/>
    <stop offset="100%" stop-color="#1a2a18" stop-opacity="0.18"/>
  </radialGradient>
  <rect x="0" y="0" width="480" height="640" fill="url(#vignette-113)"/>
  <!-- 折痕 -->
  <path d="M 0 320 L 480 318" stroke="#1a2a18" stroke-width="0.4" opacity="0.08"/>
  <path d="M 240 0 L 242 640" stroke="#1a2a18" stroke-width="0.3" opacity="0.06"/>

  <rect x="14" y="14" width="452" height="612" fill="none" stroke="#4e6a4a" stroke-width="1.4"/>
  <rect x="20" y="20" width="440" height="600" fill="none" stroke="#1a2a18" stroke-width="0.5" opacity="0.5"/>
  <!-- 四角小纹 -->
  <g stroke="#4e6a4a" stroke-width="0.9" fill="none" opacity="0.7">
    <path d="M 20 38 L 20 20 L 38 20"/>
    <path d="M 442 20 L 460 20 L 460 38"/>
    <path d="M 460 602 L 460 620 L 442 620"/>
    <path d="M 38 620 L 20 620 L 20 602"/>
  </g>

  <g>
    <!-- 朝代小章：左顶角 -->
    <g transform="translate(34 36)">
      <rect x="0" y="0" width="44" height="22" fill="none" stroke="#8a2828" stroke-width="1.6"/>
      <text x="22" y="15" text-anchor="middle" font-family="STKaiti, KaiTi, serif" font-size="11" fill="#8a2828" letter-spacing="2" font-weight="600">东晋</text>
    </g>
    <!-- 朝代小印 -->
    <g transform="translate(82 32)">
      <rect x="0" y="0" width="22" height="22" fill="#8a2828"/>
      <text x="11" y="16" text-anchor="middle" font-family="serif" font-size="11" fill="#e6ecdc" font-weight="700">镜</text>
    </g>
    <!-- 题词：右半 -->
    <g transform="translate(120 44)">
      <text font-family="STKaiti, KaiTi, serif" font-size="15" fill="#1a2a18" letter-spacing="3" font-weight="500">
        <tspan x="0" dy="0">采菊东篱</tspan><tspan x="0" dy="22">悠然见南山</tspan>
      </text>
    </g>
    <!-- 顶分隔细线 -->
    <line x1="34" y1="78" x2="446" y2="78" stroke="#4e6a4a" stroke-width="0.5" opacity="0.6"/>
    <line x1="34" y1="82" x2="446" y2="82" stroke="#4e6a4a" stroke-width="0.3" opacity="0.4"/>
  </g>
<!-- 场景区 -->
<g>
        
  <g filter="url(#haze-50)" opacity="0.7">
    <path d="M 0 260 L 60 200 L 130 175 L 200 210 L 280 160 L 360 190 L 440 220 L 480 240 L 480 480 L 0 480 Z" fill="#6a8a5e" opacity="0.35"/>
    <path d="M 0 284 L 80 254 L 170 229 L 260 264 L 340 224 L 420 259 L 480 279 L 480 480 L 0 480 Z" fill="#6a8a5e" opacity="0.55"/>
  </g>
        
  <g filter="url(#haze-50)" opacity="0.7">
    <path d="M 0 340 L 60 298 L 130 280.5 L 200 305 L 280 270 L 360 291 L 440 312 L 480 326 L 480 480 L 0 480 Z" fill="#6a8a5e" opacity="0.35"/>
    <path d="M 0 364 L 80 343 L 170 325.5 L 260 350 L 340 322 L 420 346.5 L 480 360.5 L 480 480 L 0 480 Z" fill="#6a8a5e" opacity="0.55"/>
  </g>
        
  <g fill="#e6ecdc" opacity="0.85">
    <ellipse cx="80" cy="130" rx="35" ry="6"/>
    <ellipse cx="66" cy="126" rx="12.6" ry="5"/>
    <ellipse cx="92.6" cy="127" rx="14" ry="4"/>
  </g>
        
  <g fill="#e6ecdc" opacity="0.85">
    <ellipse cx="380" cy="140" rx="30" ry="6"/>
    <ellipse cx="368" cy="136" rx="10.799999999999999" ry="5"/>
    <ellipse cx="390.8" cy="137" rx="12" ry="4"/>
  </g>
        
  <g stroke="#1a2a18" stroke-width="1.8" fill="none" stroke-linecap="round">
    <line x1="60" y1="440" x2="60" y2="330"/>
    <line x1="54" y1="407" x2="66" y2="407"/>
    <line x1="55" y1="379.5" x2="65" y2="379.5"/>
    <line x1="54" y1="352" x2="66" y2="352"/>
    <path d="M 60 418 q -10 -4 -22 -8" />
    <path d="M 60 385 q 12 -6 24 -10" />
  </g>
        
  <g stroke="#1a2a18" stroke-width="1.8" fill="none" stroke-linecap="round">
    <line x1="420" y1="440" x2="420" y2="340"/>
    <line x1="414" y1="410" x2="426" y2="410"/>
    <line x1="415" y1="385" x2="425" y2="385"/>
    <line x1="414" y1="360" x2="426" y2="360"/>
    <path d="M 420 420 q -10 -4 -22 -8" />
    <path d="M 420 390 q 12 -6 24 -10" />
  </g>
        <!-- 篱笆 -->
        <g stroke="#4e6a4a" stroke-width="1" opacity="0.85">
          <line x1="100" y1="430" x2="180" y2="430"/>
          <line x1="100" y1="420" x2="100" y2="460"/>
          <line x1="130" y1="416" x2="130" y2="464"/>
          <line x1="160" y1="416" x2="160" y2="464"/>
          <line x1="180" y1="430" x2="180" y2="460"/>
        </g>
        <!-- 菊 -->
        
  <g>
    <ellipse cx="200" cy="430" rx="8" ry="3.2" transform="rotate(0 200 430)" fill="#8aaa78" opacity="0.8"/><ellipse cx="200" cy="430" rx="8" ry="3.2" transform="rotate(45 200 430)" fill="#8aaa78" opacity="0.8"/><ellipse cx="200" cy="430" rx="8" ry="3.2" transform="rotate(90 200 430)" fill="#8aaa78" opacity="0.8"/><ellipse cx="200" cy="430" rx="8" ry="3.2" transform="rotate(135 200 430)" fill="#8aaa78" opacity="0.8"/><ellipse cx="200" cy="430" rx="8" ry="3.2" transform="rotate(180 200 430)" fill="#8aaa78" opacity="0.8"/><ellipse cx="200" cy="430" rx="8" ry="3.2" transform="rotate(225 200 430)" fill="#8aaa78" opacity="0.8"/><ellipse cx="200" cy="430" rx="8" ry="3.2" transform="rotate(270 200 430)" fill="#8aaa78" opacity="0.8"/><ellipse cx="200" cy="430" rx="8" ry="3.2" transform="rotate(315 200 430)" fill="#8aaa78" opacity="0.8"/>
    <circle cx="200" cy="430" r="3.2" fill="#a82828"/>
  </g>
        
  <g>
    <ellipse cx="220" cy="442" rx="6" ry="2.4000000000000004" transform="rotate(0 220 442)" fill="#8aaa78" opacity="0.8"/><ellipse cx="220" cy="442" rx="6" ry="2.4000000000000004" transform="rotate(45 220 442)" fill="#8aaa78" opacity="0.8"/><ellipse cx="220" cy="442" rx="6" ry="2.4000000000000004" transform="rotate(90 220 442)" fill="#8aaa78" opacity="0.8"/><ellipse cx="220" cy="442" rx="6" ry="2.4000000000000004" transform="rotate(135 220 442)" fill="#8aaa78" opacity="0.8"/><ellipse cx="220" cy="442" rx="6" ry="2.4000000000000004" transform="rotate(180 220 442)" fill="#8aaa78" opacity="0.8"/><ellipse cx="220" cy="442" rx="6" ry="2.4000000000000004" transform="rotate(225 220 442)" fill="#8aaa78" opacity="0.8"/><ellipse cx="220" cy="442" rx="6" ry="2.4000000000000004" transform="rotate(270 220 442)" fill="#8aaa78" opacity="0.8"/><ellipse cx="220" cy="442" rx="6" ry="2.4000000000000004" transform="rotate(315 220 442)" fill="#8aaa78" opacity="0.8"/>
    <circle cx="220" cy="442" r="2.4000000000000004" fill="#a82828"/>
  </g>
        
  <g>
    <ellipse cx="250" cy="430" rx="7" ry="2.8000000000000003" transform="rotate(0 250 430)" fill="#8aaa78" opacity="0.8"/><ellipse cx="250" cy="430" rx="7" ry="2.8000000000000003" transform="rotate(45 250 430)" fill="#8aaa78" opacity="0.8"/><ellipse cx="250" cy="430" rx="7" ry="2.8000000000000003" transform="rotate(90 250 430)" fill="#8aaa78" opacity="0.8"/><ellipse cx="250" cy="430" rx="7" ry="2.8000000000000003" transform="rotate(135 250 430)" fill="#8aaa78" opacity="0.8"/><ellipse cx="250" cy="430" rx="7" ry="2.8000000000000003" transform="rotate(180 250 430)" fill="#8aaa78" opacity="0.8"/><ellipse cx="250" cy="430" rx="7" ry="2.8000000000000003" transform="rotate(225 250 430)" fill="#8aaa78" opacity="0.8"/><ellipse cx="250" cy="430" rx="7" ry="2.8000000000000003" transform="rotate(270 250 430)" fill="#8aaa78" opacity="0.8"/><ellipse cx="250" cy="430" rx="7" ry="2.8000000000000003" transform="rotate(315 250 430)" fill="#8aaa78" opacity="0.8"/>
    <circle cx="250" cy="430" r="2.8000000000000003" fill="#a82828"/>
  </g>
        
  <g>
    <ellipse cx="280" cy="442" rx="6" ry="2.4000000000000004" transform="rotate(0 280 442)" fill="#8aaa78" opacity="0.8"/><ellipse cx="280" cy="442" rx="6" ry="2.4000000000000004" transform="rotate(45 280 442)" fill="#8aaa78" opacity="0.8"/><ellipse cx="280" cy="442" rx="6" ry="2.4000000000000004" transform="rotate(90 280 442)" fill="#8aaa78" opacity="0.8"/><ellipse cx="280" cy="442" rx="6" ry="2.4000000000000004" transform="rotate(135 280 442)" fill="#8aaa78" opacity="0.8"/><ellipse cx="280" cy="442" rx="6" ry="2.4000000000000004" transform="rotate(180 280 442)" fill="#8aaa78" opacity="0.8"/><ellipse cx="280" cy="442" rx="6" ry="2.4000000000000004" transform="rotate(225 280 442)" fill="#8aaa78" opacity="0.8"/><ellipse cx="280" cy="442" rx="6" ry="2.4000000000000004" transform="rotate(270 280 442)" fill="#8aaa78" opacity="0.8"/><ellipse cx="280" cy="442" rx="6" ry="2.4000000000000004" transform="rotate(315 280 442)" fill="#8aaa78" opacity="0.8"/>
    <circle cx="280" cy="442" r="2.4000000000000004" fill="#a82828"/>
  </g>
        
  <g>
    <ellipse cx="310" cy="432" rx="8" ry="3.2" transform="rotate(0 310 432)" fill="#8aaa78" opacity="0.8"/><ellipse cx="310" cy="432" rx="8" ry="3.2" transform="rotate(45 310 432)" fill="#8aaa78" opacity="0.8"/><ellipse cx="310" cy="432" rx="8" ry="3.2" transform="rotate(90 310 432)" fill="#8aaa78" opacity="0.8"/><ellipse cx="310" cy="432" rx="8" ry="3.2" transform="rotate(135 310 432)" fill="#8aaa78" opacity="0.8"/><ellipse cx="310" cy="432" rx="8" ry="3.2" transform="rotate(180 310 432)" fill="#8aaa78" opacity="0.8"/><ellipse cx="310" cy="432" rx="8" ry="3.2" transform="rotate(225 310 432)" fill="#8aaa78" opacity="0.8"/><ellipse cx="310" cy="432" rx="8" ry="3.2" transform="rotate(270 310 432)" fill="#8aaa78" opacity="0.8"/><ellipse cx="310" cy="432" rx="8" ry="3.2" transform="rotate(315 310 432)" fill="#8aaa78" opacity="0.8"/>
    <circle cx="310" cy="432" r="3.2" fill="#a82828"/>
  </g>
        <!-- 提篮者 -->
        <g transform="translate(240 360)" fill="#1a2a18" opacity="0.9">
          <ellipse cx="0" cy="0" rx="12" ry="15"/>
          <path d="M -18 12 L -24 60 L 24 60 L 18 12 Z"/>
          <ellipse cx="0" cy="-18" rx="10" ry="12" fill="#4e6a4a"/>
        </g>
        <ellipse cx="220" cy="420" rx="14" ry="6" fill="#6a8a5e" opacity="0.7"/></g>

  <g>
    <!-- 底分隔细线 -->
    <line x1="34" y1="500" x2="446" y2="500" stroke="#4e6a4a" stroke-width="0.5" opacity="0.6"/>
    <line x1="34" y1="504" x2="446" y2="504" stroke="#4e6a4a" stroke-width="0.3" opacity="0.4"/>
    <!-- 姓名：左半横排大字 -->
    <g transform="translate(46 540)">
      <text font-family="STKaiti, KaiTi, serif" font-size="38" fill="#1a2a18" letter-spacing="14" font-weight="700">陶渊明</text>
      <!-- 姓名小注：右侧小字 -->
      <text x="0" y="40" font-family="STKaiti, KaiTi, serif" font-size="10" fill="#4e6a4a" letter-spacing="3" opacity="0.85">东方文人 · 镜心之镜</text>
    </g>
    <!-- 篆刻朱砂方印：右下角 -->
    <g transform="translate(360 530)">
      <rect x="0" y="0" width="64" height="64" fill="#8a2828" filter="url(#ink-40)"/>
      <rect x="2" y="2" width="60" height="60" fill="none" stroke="#e6ecdc" stroke-width="0.8" opacity="0.6"/>
      
      <text x="32" y="28" text-anchor="middle" font-family="serif" font-size="20" fill="#e6ecdc" font-weight="900">五</text>
      <text x="32" y="54" text-anchor="middle" font-family="serif" font-size="20" fill="#e6ecdc" font-weight="900">生</text>
      <g transform="rotate(-2 32 32)" opacity="0.95">
        <text x="14" y="22" text-anchor="middle" font-family="serif" font-size="16" fill="#e6ecdc" font-weight="900">柳</text>
        <text x="50" y="50" text-anchor="middle" font-family="serif" font-size="16" fill="#e6ecdc" font-weight="900">先</text>
      </g>
    </g>
  </g>
<!-- 副标：人物小注 -->
<g transform="translate(46 600)">
  <text font-family="STKaiti, KaiTi, serif" font-size="10" fill="#4e6a4a" letter-spacing="2" opacity="0.7">归园田居 · 镜心选镜</text>
</g>
</svg>