<svg xmlns="http://www.w3.org/2000/svg" viewBox="0 0 480 640" width="480" height="640" preserveAspectRatio="xMidYMid meet">

  <defs>
    <filter id="ink-106" x="-10%" y="-10%" width="120%" height="120%">
      <feTurbulence type="fractalNoise" baseFrequency="0.022" numOctaves="2" seed="106" result="noise"/>
      <feDisplacementMap in="SourceGraphic" in2="noise" scale="2.4"/>
    </filter>
    <filter id="ink-strong-106" x="-10%" y="-10%" width="120%" height="120%">
      <feTurbulence type="fractalNoise" baseFrequency="0.045" numOctaves="3" seed="113" result="noise"/>
      <feDisplacementMap in="SourceGraphic" in2="noise" scale="3.6"/>
    </filter>
    <filter id="wash-106" x="-20%" y="-20%" width="140%" height="140%">
      <feTurbulence type="fractalNoise" baseFrequency="0.018" numOctaves="2" seed="109" result="t"/>
      <feDisplacementMap in="SourceGraphic" in2="t" scale="6"/>
      <feGaussianBlur stdDeviation="0.6"/>
    </filter>
    <filter id="haze-106">
      <feGaussianBlur stdDeviation="2.4"/>
    </filter>
    <filter id="paper-106" x="0%" y="0%" width="100%" height="100%">
      <feTurbulence type="fractalNoise" baseFrequency="0.85" numOctaves="2" seed="117" result="grain"/>
      <feColorMatrix in="grain" type="matrix"
        values="0 0 0 0 0.45
                0 0 0 0 0.35
                0 0 0 0 0.20
                0 0 0 0.10 0"/>
    </filter>
  </defs>


  <rect x="0" y="0" width="480" height="640" fill="#e6dcec"/>
  <rect x="0" y="0" width="480" height="640" fill="#e6dcec" filter="url(#paper-106)" opacity="0.55"/>
  <!-- 边角阴影 -->
  <radialGradient id="vignette-106" cx="50%" cy="50%" r="70%">
    <stop offset="60%" stop-color="#e6dcec" stop-opacity="0"/>
    <stop offset="100%" stop-color="#1a0a20" stop-opacity="0.18"/>
  </radialGradient>
  <rect x="0" y="0" width="480" height="640" fill="url(#vignette-106)"/>
  <!-- 折痕 -->
  <path d="M 0 320 L 480 318" stroke="#1a0a20" stroke-width="0.4" opacity="0.08"/>
  <path d="M 240 0 L 242 640" stroke="#1a0a20" stroke-width="0.3" opacity="0.06"/>

  <rect x="14" y="14" width="452" height="612" fill="none" stroke="#5a3a68" stroke-width="1.4"/>
  <rect x="20" y="20" width="440" height="600" fill="none" stroke="#1a0a20" stroke-width="0.5" opacity="0.5"/>
  <!-- 四角小纹 -->
  <g stroke="#5a3a68" stroke-width="0.9" fill="none" opacity="0.7">
    <path d="M 20 38 L 20 20 L 38 20"/>
    <path d="M 442 20 L 460 20 L 460 38"/>
    <path d="M 460 602 L 460 620 L 442 620"/>
    <path d="M 38 620 L 20 620 L 20 602"/>
  </g>

  <g>
    <!-- 朝代小章：左顶角 -->
    <g transform="translate(34 36)">
      <rect x="0" y="0" width="44" height="22" fill="none" stroke="#8a2848" stroke-width="1.6"/>
      <text x="22" y="15" text-anchor="middle" font-family="STKaiti, KaiTi, serif" font-size="11" fill="#8a2848" letter-spacing="2" font-weight="600">清</text>
    </g>
    <!-- 朝代小印 -->
    <g transform="translate(82 32)">
      <rect x="0" y="0" width="22" height="22" fill="#8a2848"/>
      <text x="11" y="16" text-anchor="middle" font-family="serif" font-size="11" fill="#e6dcec" font-weight="700">镜</text>
    </g>
    <!-- 题词：右半 -->
    <g transform="translate(120 44)">
      <text font-family="STKaiti, KaiTi, serif" font-size="15" fill="#1a0a20" letter-spacing="3" font-weight="500">
        <tspan x="0" dy="0">养得胸中</tspan><tspan x="0" dy="22">大阵法</tspan>
      </text>
    </g>
    <!-- 顶分隔细线 -->
    <line x1="34" y1="78" x2="446" y2="78" stroke="#5a3a68" stroke-width="0.5" opacity="0.6"/>
    <line x1="34" y1="82" x2="446" y2="82" stroke="#5a3a68" stroke-width="0.3" opacity="0.4"/>
  </g>
<!-- 场景区 -->
<g>
        
  <g filter="url(#haze-50)" opacity="0.7">
    <path d="M 0 300 L 60 264 L 130 249 L 200 270 L 280 240 L 360 258 L 440 276 L 480 288 L 480 480 L 0 480 Z" fill="#7a5a88" opacity="0.35"/>
    <path d="M 0 324 L 80 306 L 170 291 L 260 312 L 340 288 L 420 309 L 480 321 L 480 480 L 0 480 Z" fill="#7a5a88" opacity="0.55"/>
  </g>
        
  <g>
    <line x1="80" y1="352" x2="80" y2="380" stroke="#1a0a20" stroke-width="2"/>
    <ellipse cx="80" cy="352" rx="2" ry="3" fill="#e8a028"/>
    <ellipse cx="80" cy="348" rx="3" ry="4" fill="#f8c848" opacity="0.85"/>
    <rect x="74" y="380" width="12" height="4" fill="#1a0a20"/>
  </g>
        <!-- 案 -->
        <rect x="60" y="400" width="360" height="14" fill="#5a3a68" opacity="0.8"/>
        <rect x="60" y="414" width="360" height="4" fill="#1a0a20" opacity="0.5"/>
        
  <g>
    <rect x="96" y="376" width="48" height="8" fill="#e6dcec" stroke="#5a3a68" stroke-width="0.6"/>
    <line x1="98" y1="379" x2="142" y2="379" stroke="#5a3a68" stroke-width="0.4"/>
    <line x1="98" y1="381" x2="142" y2="381" stroke="#5a3a68" stroke-width="0.4"/>
  </g>
        
  <g>
    <rect x="196" y="376" width="48" height="8" fill="#e6dcec" stroke="#5a3a68" stroke-width="0.6"/>
    <line x1="198" y1="379" x2="242" y2="379" stroke="#5a3a68" stroke-width="0.4"/>
    <line x1="198" y1="381" x2="242" y2="381" stroke="#5a3a68" stroke-width="0.4"/>
  </g>
        
  <g>
    <rect x="296" y="376" width="48" height="8" fill="#e6dcec" stroke="#5a3a68" stroke-width="0.6"/>
    <line x1="298" y1="379" x2="342" y2="379" stroke="#5a3a68" stroke-width="0.4"/>
    <line x1="298" y1="381" x2="342" y2="381" stroke="#5a3a68" stroke-width="0.4"/>
  </g>
        
  <g>
    <ellipse cx="380" cy="432" rx="22" ry="6" fill="#1a0a20"/>
    <ellipse cx="380" cy="431" rx="18" ry="3" fill="#0a0a0a"/>
  </g>
        <!-- 坐者 -->
        <g transform="translate(220 320)" fill="#1a0a20" opacity="0.95">
          <ellipse cx="0" cy="0" rx="13" ry="16"/>
          <path d="M -20 14 L -26 64 L 26 64 L 20 14 Z"/>
          <ellipse cx="0" cy="-18" rx="10" ry="12" fill="#5a3a68"/>
        </g>
        <!-- 执笔 -->
        <line x1="190" y1="358" x2="220" y2="370" stroke="#1a0a20" stroke-width="1.6"/>
        <line x1="220" y1="370" x2="232" y2="362" stroke="#9a78a8" stroke-width="2"/></g>

  <g>
    <!-- 底分隔细线 -->
    <line x1="34" y1="500" x2="446" y2="500" stroke="#5a3a68" stroke-width="0.5" opacity="0.6"/>
    <line x1="34" y1="504" x2="446" y2="504" stroke="#5a3a68" stroke-width="0.3" opacity="0.4"/>
    <!-- 姓名：左半横排大字 -->
    <g transform="translate(46 540)">
      <text font-family="STKaiti, KaiTi, serif" font-size="38" fill="#1a0a20" letter-spacing="14" font-weight="700">曾国藩</text>
      <!-- 姓名小注：右侧小字 -->
      <text x="0" y="40" font-family="STKaiti, KaiTi, serif" font-size="10" fill="#5a3a68" letter-spacing="3" opacity="0.85">东方文人 · 镜心之镜</text>
    </g>
    <!-- 篆刻朱砂方印：右下角 -->
    <g transform="translate(360 530)">
      <rect x="0" y="0" width="64" height="64" fill="#8a2848" filter="url(#ink-40)"/>
      <rect x="2" y="2" width="60" height="60" fill="none" stroke="#e6dcec" stroke-width="0.8" opacity="0.6"/>
      
      <text x="32" y="20" text-anchor="middle" font-family="serif" font-size="20" fill="#e6dcec" font-weight="900">文</text>
      <text x="32" y="40" text-anchor="middle" font-family="serif" font-size="20" fill="#e6dcec" font-weight="900">正</text>
      <text x="32" y="60" text-anchor="middle" font-family="serif" font-size="20" fill="#e6dcec" font-weight="900">公</text>
    </g>
  </g>
<!-- 副标：人物小注 -->
<g transform="translate(46 600)">
  <text font-family="STKaiti, KaiTi, serif" font-size="10" fill="#5a3a68" letter-spacing="2" opacity="0.7">家书抵万金 · 镜心选镜</text>
</g>
</svg>