<svg xmlns="http://www.w3.org/2000/svg" viewBox="0 0 480 640" width="480" height="640" preserveAspectRatio="xMidYMid meet">

  <defs>
    <filter id="ink-78" x="-10%" y="-10%" width="120%" height="120%">
      <feTurbulence type="fractalNoise" baseFrequency="0.022" numOctaves="2" seed="78" result="noise"/>
      <feDisplacementMap in="SourceGraphic" in2="noise" scale="2.4"/>
    </filter>
    <filter id="ink-strong-78" x="-10%" y="-10%" width="120%" height="120%">
      <feTurbulence type="fractalNoise" baseFrequency="0.045" numOctaves="3" seed="85" result="noise"/>
      <feDisplacementMap in="SourceGraphic" in2="noise" scale="3.6"/>
    </filter>
    <filter id="wash-78" x="-20%" y="-20%" width="140%" height="140%">
      <feTurbulence type="fractalNoise" baseFrequency="0.018" numOctaves="2" seed="81" result="t"/>
      <feDisplacementMap in="SourceGraphic" in2="t" scale="6"/>
      <feGaussianBlur stdDeviation="0.6"/>
    </filter>
    <filter id="haze-78">
      <feGaussianBlur stdDeviation="2.4"/>
    </filter>
    <filter id="paper-78" x="0%" y="0%" width="100%" height="100%">
      <feTurbulence type="fractalNoise" baseFrequency="0.85" numOctaves="2" seed="89" result="grain"/>
      <feColorMatrix in="grain" type="matrix"
        values="0 0 0 0 0.45
                0 0 0 0 0.35
                0 0 0 0 0.20
                0 0 0 0.10 0"/>
    </filter>
  </defs>


  <rect x="0" y="0" width="480" height="640" fill="#e2e2ec"/>
  <rect x="0" y="0" width="480" height="640" fill="#e2e2ec" filter="url(#paper-78)" opacity="0.55"/>
  <!-- 边角阴影 -->
  <radialGradient id="vignette-78" cx="50%" cy="50%" r="70%">
    <stop offset="60%" stop-color="#e2e2ec" stop-opacity="0"/>
    <stop offset="100%" stop-color="#0a0a20" stop-opacity="0.18"/>
  </radialGradient>
  <rect x="0" y="0" width="480" height="640" fill="url(#vignette-78)"/>
  <!-- 折痕 -->
  <path d="M 0 320 L 480 318" stroke="#0a0a20" stroke-width="0.4" opacity="0.08"/>
  <path d="M 240 0 L 242 640" stroke="#0a0a20" stroke-width="0.3" opacity="0.06"/>

  <rect x="14" y="14" width="452" height="612" fill="none" stroke="#3a3a5a" stroke-width="1.4"/>
  <rect x="20" y="20" width="440" height="600" fill="none" stroke="#0a0a20" stroke-width="0.5" opacity="0.5"/>
  <!-- 四角小纹 -->
  <g stroke="#3a3a5a" stroke-width="0.9" fill="none" opacity="0.7">
    <path d="M 20 38 L 20 20 L 38 20"/>
    <path d="M 442 20 L 460 20 L 460 38"/>
    <path d="M 460 602 L 460 620 L 442 620"/>
    <path d="M 38 620 L 20 620 L 20 602"/>
  </g>

  <g>
    <!-- 朝代小章：左顶角 -->
    <g transform="translate(34 36)">
      <rect x="0" y="0" width="44" height="22" fill="none" stroke="#6a2030" stroke-width="1.6"/>
      <text x="22" y="15" text-anchor="middle" font-family="STKaiti, KaiTi, serif" font-size="11" fill="#6a2030" letter-spacing="2" font-weight="600">近代</text>
    </g>
    <!-- 朝代小印 -->
    <g transform="translate(82 32)">
      <rect x="0" y="0" width="22" height="22" fill="#6a2030"/>
      <text x="11" y="16" text-anchor="middle" font-family="serif" font-size="11" fill="#e2e2ec" font-weight="700">镜</text>
    </g>
    <!-- 题词：右半 -->
    <g transform="translate(120 44)">
      <text font-family="STKaiti, KaiTi, serif" font-size="15" fill="#0a0a20" letter-spacing="3" font-weight="500">
        <tspan x="0" dy="0">千次试灯</tspan><tspan x="0" dy="22">百分汗水</tspan>
      </text>
    </g>
    <!-- 顶分隔细线 -->
    <line x1="34" y1="78" x2="446" y2="78" stroke="#3a3a5a" stroke-width="0.5" opacity="0.6"/>
    <line x1="34" y1="82" x2="446" y2="82" stroke="#3a3a5a" stroke-width="0.3" opacity="0.4"/>
  </g>
<!-- 场景区 -->
<g>
        
  <g filter="url(#haze-50)" opacity="0.7">
    <path d="M 0 320 L 60 284 L 130 269 L 200 290 L 280 260 L 360 278 L 440 296 L 480 308 L 480 480 L 0 480 Z" fill="#5a5a7a" opacity="0.35"/>
    <path d="M 0 344 L 80 326 L 170 311 L 260 332 L 340 308 L 420 329 L 480 341 L 480 480 L 0 480 Z" fill="#5a5a7a" opacity="0.55"/>
  </g>
        
  <g fill="#e2e2ec" opacity="0.85">
    <ellipse cx="140" cy="150" rx="35" ry="6"/>
    <ellipse cx="126" cy="146" rx="12.6" ry="5"/>
    <ellipse cx="152.6" cy="147" rx="14" ry="4"/>
  </g>
        
  <g fill="#0a0a20" opacity="0.85">
    <rect x="77" y="360" width="6" height="8" transform="rotate(0 80 380)"/><rect x="77" y="360" width="6" height="8" transform="rotate(45 80 380)"/><rect x="77" y="360" width="6" height="8" transform="rotate(90 80 380)"/><rect x="77" y="360" width="6" height="8" transform="rotate(135 80 380)"/><rect x="77" y="360" width="6" height="8" transform="rotate(180 80 380)"/><rect x="77" y="360" width="6" height="8" transform="rotate(225 80 380)"/><rect x="77" y="360" width="6" height="8" transform="rotate(270 80 380)"/><rect x="77" y="360" width="6" height="8" transform="rotate(315 80 380)"/>
    <circle cx="80" cy="380" r="16"/>
    <circle cx="80" cy="380" r="7.2" fill="#f1e4c4"/>
  </g>
        
  <g fill="#0a0a20" opacity="0.85">
    <rect x="417" y="382" width="6" height="8" transform="rotate(0 420 400)"/><rect x="417" y="382" width="6" height="8" transform="rotate(45 420 400)"/><rect x="417" y="382" width="6" height="8" transform="rotate(90 420 400)"/><rect x="417" y="382" width="6" height="8" transform="rotate(135 420 400)"/><rect x="417" y="382" width="6" height="8" transform="rotate(180 420 400)"/><rect x="417" y="382" width="6" height="8" transform="rotate(225 420 400)"/><rect x="417" y="382" width="6" height="8" transform="rotate(270 420 400)"/><rect x="417" y="382" width="6" height="8" transform="rotate(315 420 400)"/>
    <circle cx="420" cy="400" r="14"/>
    <circle cx="420" cy="400" r="6.3" fill="#f1e4c4"/>
  </g>
        
  <g fill="#0a0a20" opacity="0.85">
    <rect x="397" y="346" width="6" height="8" transform="rotate(0 400 360)"/><rect x="397" y="346" width="6" height="8" transform="rotate(45 400 360)"/><rect x="397" y="346" width="6" height="8" transform="rotate(90 400 360)"/><rect x="397" y="346" width="6" height="8" transform="rotate(135 400 360)"/><rect x="397" y="346" width="6" height="8" transform="rotate(180 400 360)"/><rect x="397" y="346" width="6" height="8" transform="rotate(225 400 360)"/><rect x="397" y="346" width="6" height="8" transform="rotate(270 400 360)"/><rect x="397" y="346" width="6" height="8" transform="rotate(315 400 360)"/>
    <circle cx="400" cy="360" r="10"/>
    <circle cx="400" cy="360" r="4.5" fill="#f1e4c4"/>
  </g>
        
  <g>
    <path d="M 320 420 Q 360 414 400 420 L 400 450 Q 360 444 320 450 Z" fill="#e2e2ec" stroke="#0a0a20" stroke-width="1.2"/>
    <line x1="360" y1="420" x2="360" y2="446" stroke="#0a0a20" stroke-width="0.8"/>
    <line x1="326" y1="426" x2="352" y2="426" stroke="#0a0a20" stroke-width="0.5" opacity="0.6"/><line x1="326" y1="432" x2="352" y2="432" stroke="#0a0a20" stroke-width="0.5" opacity="0.6"/><line x1="326" y1="438" x2="352" y2="438" stroke="#0a0a20" stroke-width="0.5" opacity="0.6"/><line x1="326" y1="444" x2="352" y2="444" stroke="#0a0a20" stroke-width="0.5" opacity="0.6"/>
    <line x1="368" y1="426" x2="394" y2="426" stroke="#0a0a20" stroke-width="0.5" opacity="0.6"/><line x1="368" y1="432" x2="394" y2="432" stroke="#0a0a20" stroke-width="0.5" opacity="0.6"/><line x1="368" y1="438" x2="394" y2="438" stroke="#0a0a20" stroke-width="0.5" opacity="0.6"/><line x1="368" y1="444" x2="394" y2="444" stroke="#0a0a20" stroke-width="0.5" opacity="0.6"/>
  </g>
        <!-- 灯泡 -->
        <g transform="translate(240 320)">
          <path d="M -16 0 Q -16 -28 0 -28 Q 16 -28 16 0 L 14 14 L -14 14 Z" fill="#6a2030" opacity="0.7" stroke="#0a0a20" stroke-width="1.4"/>
          <line x1="-12" y1="14" x2="12" y2="14" stroke="#0a0a20" stroke-width="2"/>
          <line x1="-10" y1="20" x2="10" y2="20" stroke="#0a0a20" stroke-width="1.4"/>
          <line x1="-8" y1="26" x2="8" y2="26" stroke="#0a0a20" stroke-width="1.4"/>
          <path d="M -8 -10 q 8 6 16 0" stroke="#e2e2ec" stroke-width="1.4" fill="none"/>
          <!-- 光线 -->
          <line x1="22" y1="-30" x2="30" y2="-30" stroke="#6a2030" stroke-width="1.4" opacity="0.7"/><line x1="11.000000000000002" y1="-10.94744111674235" x2="15.000000000000004" y2="-4.019237886466843" stroke="#6a2030" stroke-width="1.4" opacity="0.7"/><line x1="-10.999999999999995" y1="-10.947441116742347" x2="-14.999999999999993" y2="-4.01923788646684" stroke="#6a2030" stroke-width="1.4" opacity="0.7"/><line x1="-22" y1="-29.999999999999996" x2="-30" y2="-29.999999999999996" stroke="#6a2030" stroke-width="1.4" opacity="0.7"/><line x1="-11.00000000000001" y1="-49.052558883257646" x2="-15.000000000000014" y2="-55.98076211353315" stroke="#6a2030" stroke-width="1.4" opacity="0.7"/><line x1="11.000000000000002" y1="-49.052558883257646" x2="15.000000000000004" y2="-55.98076211353316" stroke="#6a2030" stroke-width="1.4" opacity="0.7"/>
        </g>
        <!-- 站者 -->
        <g transform="translate(240 360)" fill="#0a0a20" opacity="0.95">
          <ellipse cx="0" cy="0" rx="12" ry="15"/>
          <path d="M -18 12 L -22 50 L 22 50 L 18 12 Z"/>
          <ellipse cx="0" cy="-18" rx="10" ry="12" fill="#3a3a5a"/>
        </g></g>

  <g>
    <!-- 底分隔细线 -->
    <line x1="34" y1="500" x2="446" y2="500" stroke="#3a3a5a" stroke-width="0.5" opacity="0.6"/>
    <line x1="34" y1="504" x2="446" y2="504" stroke="#3a3a5a" stroke-width="0.3" opacity="0.4"/>
    <!-- 姓名：左半横排大字 -->
    <g transform="translate(46 540)">
      <text font-family="STKaiti, KaiTi, serif" font-size="38" fill="#0a0a20" letter-spacing="14" font-weight="700">爱迪生</text>
      <!-- 姓名小注：右侧小字 -->
      <text x="0" y="40" font-family="STKaiti, KaiTi, serif" font-size="10" fill="#3a3a5a" letter-spacing="3" opacity="0.85">东方文人 · 镜心之镜</text>
    </g>
    <!-- 篆刻朱砂方印：右下角 -->
    <g transform="translate(360 530)">
      <rect x="0" y="0" width="64" height="64" fill="#6a2030" filter="url(#ink-40)"/>
      <rect x="2" y="2" width="60" height="60" fill="none" stroke="#e2e2ec" stroke-width="0.8" opacity="0.6"/>
      
      <text x="32" y="28" text-anchor="middle" font-family="serif" font-size="20" fill="#e2e2ec" font-weight="900">一</text>
      <text x="32" y="54" text-anchor="middle" font-family="serif" font-size="20" fill="#e2e2ec" font-weight="900">微</text>
      <g transform="rotate(-2 32 32)" opacity="0.95">
        <text x="14" y="22" text-anchor="middle" font-family="serif" font-size="16" fill="#e2e2ec" font-weight="900">灯</text>
        <text x="50" y="50" text-anchor="middle" font-family="serif" font-size="16" fill="#e2e2ec" font-weight="900">之</text>
      </g>
    </g>
  </g>
<!-- 副标：人物小注 -->
<g transform="translate(46 600)">
  <text font-family="STKaiti, KaiTi, serif" font-size="10" fill="#3a3a5a" letter-spacing="2" opacity="0.7">一灯之微 · 镜心选镜</text>
</g>
</svg>