<svg xmlns="http://www.w3.org/2000/svg" viewBox="0 0 480 640" width="480" height="640" preserveAspectRatio="xMidYMid meet">

  <defs>
    <filter id="ink-67" x="-10%" y="-10%" width="120%" height="120%">
      <feTurbulence type="fractalNoise" baseFrequency="0.022" numOctaves="2" seed="67" result="noise"/>
      <feDisplacementMap in="SourceGraphic" in2="noise" scale="2.4"/>
    </filter>
    <filter id="ink-strong-67" x="-10%" y="-10%" width="120%" height="120%">
      <feTurbulence type="fractalNoise" baseFrequency="0.045" numOctaves="3" seed="74" result="noise"/>
      <feDisplacementMap in="SourceGraphic" in2="noise" scale="3.6"/>
    </filter>
    <filter id="wash-67" x="-20%" y="-20%" width="140%" height="140%">
      <feTurbulence type="fractalNoise" baseFrequency="0.018" numOctaves="2" seed="70" result="t"/>
      <feDisplacementMap in="SourceGraphic" in2="t" scale="6"/>
      <feGaussianBlur stdDeviation="0.6"/>
    </filter>
    <filter id="haze-67">
      <feGaussianBlur stdDeviation="2.4"/>
    </filter>
    <filter id="paper-67" x="0%" y="0%" width="100%" height="100%">
      <feTurbulence type="fractalNoise" baseFrequency="0.85" numOctaves="2" seed="78" result="grain"/>
      <feColorMatrix in="grain" type="matrix"
        values="0 0 0 0 0.45
                0 0 0 0 0.35
                0 0 0 0 0.20
                0 0 0 0.10 0"/>
    </filter>
  </defs>


  <rect x="0" y="0" width="480" height="640" fill="#dee8e0"/>
  <rect x="0" y="0" width="480" height="640" fill="#dee8e0" filter="url(#paper-67)" opacity="0.55"/>
  <!-- 边角阴影 -->
  <radialGradient id="vignette-67" cx="50%" cy="50%" r="70%">
    <stop offset="60%" stop-color="#dee8e0" stop-opacity="0"/>
    <stop offset="100%" stop-color="#0e1a18" stop-opacity="0.18"/>
  </radialGradient>
  <rect x="0" y="0" width="480" height="640" fill="url(#vignette-67)"/>
  <!-- 折痕 -->
  <path d="M 0 320 L 480 318" stroke="#0e1a18" stroke-width="0.4" opacity="0.08"/>
  <path d="M 240 0 L 242 640" stroke="#0e1a18" stroke-width="0.3" opacity="0.06"/>

  <rect x="14" y="14" width="452" height="612" fill="none" stroke="#3e5a4a" stroke-width="1.4"/>
  <rect x="20" y="20" width="440" height="600" fill="none" stroke="#0e1a18" stroke-width="0.5" opacity="0.5"/>
  <!-- 四角小纹 -->
  <g stroke="#3e5a4a" stroke-width="0.9" fill="none" opacity="0.7">
    <path d="M 20 38 L 20 20 L 38 20"/>
    <path d="M 442 20 L 460 20 L 460 38"/>
    <path d="M 460 602 L 460 620 L 442 620"/>
    <path d="M 38 620 L 20 620 L 20 602"/>
  </g>

  <g>
    <!-- 朝代小章：左顶角 -->
    <g transform="translate(34 36)">
      <rect x="0" y="0" width="44" height="22" fill="none" stroke="#7a2a2a" stroke-width="1.6"/>
      <text x="22" y="15" text-anchor="middle" font-family="STKaiti, KaiTi, serif" font-size="11" fill="#7a2a2a" letter-spacing="2" font-weight="600">启蒙</text>
    </g>
    <!-- 朝代小印 -->
    <g transform="translate(82 32)">
      <rect x="0" y="0" width="22" height="22" fill="#7a2a2a"/>
      <text x="11" y="16" text-anchor="middle" font-family="serif" font-size="11" fill="#dee8e0" font-weight="700">镜</text>
    </g>
    <!-- 题词：右半 -->
    <g transform="translate(120 44)">
      <text font-family="STKaiti, KaiTi, serif" font-size="15" fill="#0e1a18" letter-spacing="3" font-weight="500">
        <tspan x="0" dy="0">苹果落地</tspan><tspan x="0" dy="22">万有之理</tspan>
      </text>
    </g>
    <!-- 顶分隔细线 -->
    <line x1="34" y1="78" x2="446" y2="78" stroke="#3e5a4a" stroke-width="0.5" opacity="0.6"/>
    <line x1="34" y1="82" x2="446" y2="82" stroke="#3e5a4a" stroke-width="0.3" opacity="0.4"/>
  </g>
<!-- 场景区 -->
<g>
        
  <g filter="url(#haze-50)" opacity="0.7">
    <path d="M 0 320 L 60 284 L 130 269 L 200 290 L 280 260 L 360 278 L 440 296 L 480 308 L 480 480 L 0 480 Z" fill="#5a7a6a" opacity="0.35"/>
    <path d="M 0 344 L 80 326 L 170 311 L 260 332 L 340 308 L 420 329 L 480 341 L 480 480 L 0 480 Z" fill="#5a7a6a" opacity="0.55"/>
  </g>
        
  <g fill="#dee8e0" opacity="0.85">
    <ellipse cx="140" cy="140" rx="40" ry="6"/>
    <ellipse cx="124" cy="136" rx="14.399999999999999" ry="5"/>
    <ellipse cx="154.4" cy="137" rx="16" ry="4"/>
  </g>
        <!-- 苹果树 -->
        <g transform="translate(140 460)">
          <line x1="0" y1="0" x2="-8" y2="-160" stroke="#0e1a18" stroke-width="6"/>
          <line x1="-4" y1="-80" x2="20" y2="-100" stroke="#0e1a18" stroke-width="4"/>
          <line x1="-4" y1="-120" x2="-30" y2="-140" stroke="#0e1a18" stroke-width="4"/>
          <ellipse cx="20" cy="-110" rx="32" ry="24" fill="#8aaa90" opacity="0.85"/>
          <ellipse cx="-30" cy="-150" rx="28" ry="22" fill="#8aaa90" opacity="0.85"/>
          <circle cx="14" cy="-100" r="4" fill="#7a2a2a"/>
          <circle cx="-26" cy="-138" r="4" fill="#7a2a2a"/>
        </g>
        <!-- 棱镜 -->
        <g transform="translate(360 320)">
          <polygon points="0,-20 16,12 -16,12" fill="#8aaa90" stroke="#0e1a18" stroke-width="1.4" opacity="0.85"/>
          <line x1="-30" y1="-4" x2="0" y2="-4" stroke="#0e1a18" stroke-width="1.4"/>
          <line x1="-30" y1="-4" x2="-30" y2="-12" stroke="#0e1a18" stroke-width="1.4"/>
          <line x1="16" y1="4" x2="44" y2="4" stroke="#7a2a2a" stroke-width="0.8" opacity="0.5"/><line x1="16" y1="8" x2="44" y2="8" stroke="#7a2a2a" stroke-width="0.8" opacity="0.6"/><line x1="16" y1="12" x2="44" y2="12" stroke="#7a2a2a" stroke-width="0.8" opacity="0.7"/><line x1="16" y1="16" x2="44" y2="16" stroke="#7a2a2a" stroke-width="0.8" opacity="0.8"/><line x1="16" y1="20" x2="44" y2="20" stroke="#7a2a2a" stroke-width="0.8" opacity="0.9"/>
        </g>
        
  <g>
    <path d="M 320 420 Q 360 414 400 420 L 400 450 Q 360 444 320 450 Z" fill="#dee8e0" stroke="#0e1a18" stroke-width="1.2"/>
    <line x1="360" y1="420" x2="360" y2="446" stroke="#0e1a18" stroke-width="0.8"/>
    <line x1="326" y1="426" x2="352" y2="426" stroke="#0e1a18" stroke-width="0.5" opacity="0.6"/><line x1="326" y1="432" x2="352" y2="432" stroke="#0e1a18" stroke-width="0.5" opacity="0.6"/><line x1="326" y1="438" x2="352" y2="438" stroke="#0e1a18" stroke-width="0.5" opacity="0.6"/><line x1="326" y1="444" x2="352" y2="444" stroke="#0e1a18" stroke-width="0.5" opacity="0.6"/>
    <line x1="368" y1="426" x2="394" y2="426" stroke="#0e1a18" stroke-width="0.5" opacity="0.6"/><line x1="368" y1="432" x2="394" y2="432" stroke="#0e1a18" stroke-width="0.5" opacity="0.6"/><line x1="368" y1="438" x2="394" y2="438" stroke="#0e1a18" stroke-width="0.5" opacity="0.6"/><line x1="368" y1="444" x2="394" y2="444" stroke="#0e1a18" stroke-width="0.5" opacity="0.6"/>
  </g>
        <!-- 坐者 -->
        <g transform="translate(240 360)" fill="#0e1a18" opacity="0.95">
          <ellipse cx="0" cy="0" rx="12" ry="15"/>
          <path d="M -18 12 L -24 50 L 24 50 L 18 12 Z"/>
          <ellipse cx="0" cy="-18" rx="10" ry="12" fill="#3e5a4a"/>
        </g>
        
  <g stroke="#8aaa90" stroke-width="1.4" fill="none" stroke-linecap="round">
    <path d="M 60 200 q 18 -8 40 -20 q 20 -10 50 -34"/>
    <ellipse cx="68" cy="194" rx="6" ry="2.4" transform="rotate(-20 68 194)" fill="#8aaa90" opacity="0.75"/><ellipse cx="84" cy="188" rx="6" ry="2.4" transform="rotate(-20 84 188)" fill="#8aaa90" opacity="0.75"/><ellipse cx="100" cy="182" rx="6" ry="2.4" transform="rotate(-20 100 182)" fill="#8aaa90" opacity="0.75"/><ellipse cx="116" cy="176" rx="6" ry="2.4" transform="rotate(-20 116 176)" fill="#8aaa90" opacity="0.75"/><ellipse cx="132" cy="170" rx="6" ry="2.4" transform="rotate(-20 132 170)" fill="#8aaa90" opacity="0.75"/>
  </g></g>

  <g>
    <!-- 底分隔细线 -->
    <line x1="34" y1="500" x2="446" y2="500" stroke="#3e5a4a" stroke-width="0.5" opacity="0.6"/>
    <line x1="34" y1="504" x2="446" y2="504" stroke="#3e5a4a" stroke-width="0.3" opacity="0.4"/>
    <!-- 姓名：左半横排大字 -->
    <g transform="translate(46 540)">
      <text font-family="STKaiti, KaiTi, serif" font-size="38" fill="#0e1a18" letter-spacing="14" font-weight="700">牛顿</text>
      <!-- 姓名小注：右侧小字 -->
      <text x="0" y="40" font-family="STKaiti, KaiTi, serif" font-size="10" fill="#3e5a4a" letter-spacing="3" opacity="0.85">东方文人 · 镜心之镜</text>
    </g>
    <!-- 篆刻朱砂方印：右下角 -->
    <g transform="translate(360 530)">
      <rect x="0" y="0" width="64" height="64" fill="#7a2a2a" filter="url(#ink-27)"/>
      <rect x="2" y="2" width="60" height="60" fill="none" stroke="#dee8e0" stroke-width="0.8" opacity="0.6"/>
      
      <text x="32" y="28" text-anchor="middle" font-family="serif" font-size="20" fill="#dee8e0" font-weight="900">万</text>
      <text x="32" y="54" text-anchor="middle" font-family="serif" font-size="20" fill="#dee8e0" font-weight="900">力</text>
      <g transform="rotate(-2 32 32)" opacity="0.95">
        <text x="14" y="22" text-anchor="middle" font-family="serif" font-size="16" fill="#dee8e0" font-weight="900">有</text>
        <text x="50" y="50" text-anchor="middle" font-family="serif" font-size="16" fill="#dee8e0" font-weight="900">引</text>
      </g>
    </g>
  </g>
<!-- 副标：人物小注 -->
<g transform="translate(46 600)">
  <text font-family="STKaiti, KaiTi, serif" font-size="10" fill="#3e5a4a" letter-spacing="2" opacity="0.7">万有之理 · 镜心选镜</text>
</g>
</svg>